<?xml version="1.0" encoding="UTF-8"?>
<svg id="Layer_2" data-name="Layer 2" xmlns="http://www.w3.org/2000/svg" viewBox="0 0 252.81 98.89">
  <defs>
    <style>
      .cls-1 {
        fill: #f1f1f1;
      }
    </style>
  </defs>
  <g id="Socmed">
    <g id="socmed1">
      <g>
        <path class="cls-1" d="M161.17,1.24h-.92V.31c.48-.22,1.08-.31,1.23-.31,1.19,0,1.46.37,2.3,2.47.86,2.16,1.25,3.43,1.55,4.34L167.62.06h1.79l-3.4,7.9v4.7h-1.79v-4.7l-3.05-6.71Z"/>
        <path class="cls-1" d="M175.55,12.84c-2.48,0-3.92-1.16-3.92-4.58,0-4.24,2.53-4.46,3.92-4.46,1.61,0,3.92.26,3.92,4.46,0,3.3-1.79,4.58-3.92,4.58ZM175.55,4.94c-1.55,0-2.21.42-2.21,3.32,0,2.49.58,3.43,2.21,3.43s2.21-.81,2.21-3.43c0-3.14-1-3.32-2.21-3.32Z"/>
        <path class="cls-1" d="M190.86,12.8c0,2.31-1.29,3.67-3.46,3.67-1.5,0-2.51-.29-2.99-.52l.13-1.25c.83.39,1.88.42,2.55.42,1.36,0,2.09-.53,2.09-2.25v-1.22c-.65.83-1.27,1.11-2.38,1.11-1.31,0-3.09-.57-3.09-4.06s1.48-4.8,4.2-4.8c.81,0,1.48.04,2.94.15v8.74ZM189.19,5.09s-.58-.06-1.5-.06c-1.44,0-2.28,1.07-2.28,3.27,0,2.97.9,3.21,1.94,3.21,1.31,0,1.84-.79,1.84-1.77v-4.65Z"/>
        <path class="cls-1" d="M202.78,12.29s-.52.44-1.4.44c-1.09,0-1.13-1.2-1.13-1.2-.52,1.07-1.46,1.31-2.42,1.31-1.19,0-2.46-.65-2.46-2.49,0-2.36,1.44-2.9,3.82-2.9h1.06v-.85c0-1.4-.96-1.4-1.73-1.4-.54,0-1.82.24-2.53.59v-1.53c.52-.17,1.69-.46,3.13-.46,2.84,0,2.84,1.53,2.84,2.86v4.8h.83v.83ZM200.25,8.49c-2.25.09-3.13.18-3.13,1.6,0,.81.42,1.38,1.48,1.38s1.65-.76,1.65-1.33v-1.66Z"/>
        <path class="cls-1" d="M224.98.06l-.37,12.6h-1.55l-6.26-10.33.17,10.33h-1.63l.19-11.42h-.81V.31c.35-.18,1.34-.31,1.8-.31.79,0,1,.22,1.36.83l5.57,9.19-.19-9.96h1.71Z"/>
        <path class="cls-1" d="M233.41,12.84c-2.48,0-3.92-1.16-3.92-4.58,0-4.24,2.53-4.46,3.92-4.46,1.61,0,3.92.26,3.92,4.46,0,3.3-1.79,4.58-3.92,4.58ZM233.41,4.94c-1.55,0-2.21.42-2.21,3.32,0,2.49.58,3.43,2.21,3.43s2.21-.81,2.21-3.43c0-3.14-1-3.32-2.21-3.32Z"/>
        <path class="cls-1" d="M250.03,10.96l1.23-6.94h1.55l-2.13,8.63h-1.73l-1.84-6.71-2.09,6.71h-1.73c-.38-2.66-1.04-6.64-1.34-7.38h-1.02v-.87c.35-.18,1.06-.42,1.44-.42,1.32,0,1.54,1.73,2.07,6.96l2.19-6.92h1.48l1.92,6.94Z"/>
      </g>
      <g>
        <path class="cls-1" d="M6.96,33.7c2.79,0,4.66,1.16,4.66,4.99,0,2.93-1.61,6.17-5.81,6.17-3.68,0-5.81-1.84-5.81-7.4,0-7.7,3.04-9.86,6.81-9.86,1.18,0,2.02.05,3.33.54l-.46,2.46s-1.07-.44-2.56-.44c-1.92,0-2.82,1.82-2.82,4.45.64-.57,1.74-.91,2.66-.91ZM5.73,35.99c-.74,0-1.18.34-1.46.66,0,4.01,0,6.03,1.66,6.03.97,0,1.69-.74,1.69-3.64,0-1.33-.18-3.05-1.89-3.05Z"/>
        <path class="cls-1" d="M24.8,44.5h-4.15v-14.24h-2v-1.65c1.25-.49,3.28-.98,4.5-.98,1.02,0,1.64.25,1.64,1.43v15.45Z"/>
        <path class="cls-1" d="M38.56,44.89c-3.71,0-5.73-1.57-5.73-8.71s2.35-8.58,5.73-8.58c3.2,0,5.73,1.03,5.73,8.58,0,7.16-2.28,8.71-5.73,8.71ZM38.56,29.77c-1.33,0-1.69.91-1.69,6.42,0,5.21.33,6.52,1.69,6.52s1.69-1.38,1.69-6.52-.33-6.42-1.69-6.42Z"/>
        <path class="cls-1" d="M60.36,27.7s0,.22-.31,2.68l-5.65,14.12h-4.04l7.6-13.33c-1.31.12-6.04.12-8.44.12l.41-3.59h10.44Z"/>
        <path class="cls-1" d="M82.98,29.67l3.38,8.98,4.07-10.95h4.94v14.61h1.1v1.75c-.79.25-2.1.52-3.46.52-1.56,0-1.79-.84-1.79-1.99v-6.2c0-.98.1-3.79.28-4.72h-.13l-4.79,12.84h-1.92l-3.66-9.03c-.56-1.35-1-2.61-1.13-3.81h-.13l.33,12.84h-3.07l.41-14.61h-1.18v-1.75c.9-.29,2.48-.52,3.46-.52,1.92,0,2.56.12,3.28,2.04Z"/>
        <path class="cls-1" d="M113.18,43.88s-1.3.71-2.71.71c-1.48,0-1.82-.64-2.07-1.45-.69,1.21-2.17,1.57-3.63,1.57s-3.3-.81-3.3-3.39c0-3.2,2.66-4.08,5.86-4.08h.67v-.52c0-1.7-.74-1.7-1.74-1.7-1.18,0-2.33.25-3.71,1.21l-.15-2.58c1.77-.74,2.66-.96,5.2-.96,3.61,0,4.27,1.82,4.27,4.03v5.46h1.33v1.7ZM107.98,38.92c-1.84,0-2.58.52-2.58,1.87,0,.79.26,1.57,1.1,1.57,1.38,0,1.48-1.4,1.48-1.4v-2.04Z"/>
        <path class="cls-1" d="M122.72,49.89h-3.86v-14.63h-1.33v-1.67c.77-.37,1.64-.71,3.04-.71,1.02,0,1.56.49,1.82,1.48.41-1.16,1.84-1.65,3.17-1.65,2.02,0,4.58.84,4.58,5.44s-2.58,6.52-5.5,6.52c-.92,0-1.46-.12-1.92-.27v5.51ZM124.38,35c-1.23,0-1.66.52-1.66,1.4v5.9c.18.12.56.25,1.02.25,1.64,0,2.48-.81,2.48-4.23,0-1.87-.38-3.32-1.84-3.32Z"/>
        <path class="cls-1" d="M139.89,42.19h1.33v1.7c-.77.37-2.28.69-2.97.69-1.89,0-2.23-.76-2.23-2.39v-12.1h-1.33v-1.7c.74-.34,2.1-.69,3.28-.69,1.59,0,1.92,1.08,1.92,1.94v12.54Z"/>
        <path class="cls-1" d="M145.98,39.09c0-5.68,3.17-6.4,5.78-6.4,2.28,0,4.81.71,4.81,3.52,0,2.58-2.53,3.12-4.66,3.12-.82,0-1.54-.1-2-.15.1,2.41,1.05,3.05,2.89,3.05.95,0,1.74-.15,2.92-.66l.36,2.02c-.77.52-2.41,1.16-4.63,1.16-3.35,0-5.48-1.75-5.48-5.66ZM151.89,34.76c-1.07,0-1.94.49-1.94,2.63.41.07.9.15,1.69.15.84,0,1.56-.49,1.56-1.48,0-.76-.31-1.3-1.31-1.3Z"/>
        <path class="cls-1" d="M172.59,42.56c0-.57.15-1.48.38-2.34h1.97c.1,1.84,1.07,2.48,2.76,2.48s2.58-.96,2.58-2.19c0-1.89-1.2-2.17-3.61-3.44-2.3-1.23-4.02-2.09-4.02-4.85,0-3.84,3.33-4.62,6.12-4.62s4.71.69,4.71,2.14c0,.61-.08,1.38-.49,2.46h-2.46v-2.21c-.54-.12-1.56-.2-1.92-.2-1.74,0-2.23.69-2.23,1.77,0,1.5,1.89,2.14,3.38,2.88,2.53,1.28,4.35,2.24,4.35,4.94,0,4.5-3.71,5.49-6.55,5.49-2.48,0-4.99-.44-4.99-2.31Z"/>
        <path class="cls-1" d="M196.36,44.3s-1.25.32-2.97.32c-2.97,0-3.2-1.77-3.2-3.94v-5.53h-1.25v-1.67s1.82-.62,2.41-2.48l.46-1.48,2.25-.15v3.54h2.3v2.24h-2.3v5.71c0,1.13.38,1.5,1.05,1.5.51,0,1.25-.2,1.25-.2v2.14Z"/>
        <path class="cls-1" d="M210.1,36.01c-.9-.34-1.79-.37-2.46-.37-1.25,0-1.61.62-1.61,1.48v7.38h-3.86v-9.25h-1.33v-1.7c1.1-.47,2.15-.69,2.87-.69,1.25,0,1.84.52,2.07,1.8.82-1.28,1.74-1.82,3.22-1.82.33,0,.69.02,1.1.1v3.07Z"/>
        <path class="cls-1" d="M214.5,39.09c0-5.68,3.17-6.4,5.78-6.4,2.28,0,4.81.71,4.81,3.52,0,2.58-2.53,3.12-4.66,3.12-.82,0-1.54-.1-2-.15.1,2.41,1.05,3.05,2.89,3.05.95,0,1.74-.15,2.92-.66l.36,2.02c-.77.52-2.41,1.16-4.63,1.16-3.35,0-5.48-1.75-5.48-5.66ZM220.41,34.76c-1.07,0-1.94.49-1.94,2.63.41.07.9.15,1.69.15.84,0,1.56-.49,1.56-1.48,0-.76-.31-1.3-1.31-1.3Z"/>
        <path class="cls-1" d="M229.98,39.09c0-5.68,3.17-6.4,5.78-6.4,2.28,0,4.81.71,4.81,3.52,0,2.58-2.53,3.12-4.66,3.12-.82,0-1.54-.1-2-.15.1,2.41,1.05,3.05,2.89,3.05.95,0,1.74-.15,2.92-.66l.36,2.02c-.77.52-2.41,1.16-4.63,1.16-3.35,0-5.48-1.75-5.48-5.66ZM235.89,34.76c-1.07,0-1.94.49-1.94,2.63.41.07.9.15,1.69.15.84,0,1.56-.49,1.56-1.48,0-.76-.31-1.3-1.31-1.3Z"/>
        <path class="cls-1" d="M252.47,44.3s-1.25.32-2.97.32c-2.97,0-3.2-1.77-3.2-3.94v-5.53h-1.25v-1.67s1.82-.62,2.41-2.48l.46-1.48,2.25-.15v3.54h2.3v2.24h-2.3v5.71c0,1.13.38,1.5,1.05,1.5.51,0,1.25-.2,1.25-.2v2.14Z"/>
        <path class="cls-1" d="M153.91,72.07c0-.57.15-1.48.38-2.34h1.97c.1,1.84,1.07,2.48,2.76,2.48s2.58-.96,2.58-2.19c0-1.89-1.2-2.17-3.61-3.44-2.3-1.23-4.02-2.09-4.02-4.85,0-3.84,3.33-4.62,6.12-4.62s4.71.69,4.71,2.14c0,.62-.08,1.38-.49,2.46h-2.46v-2.21c-.54-.12-1.56-.2-1.92-.2-1.74,0-2.23.69-2.23,1.77,0,1.5,1.89,2.14,3.38,2.88,2.53,1.28,4.35,2.24,4.35,4.94,0,4.5-3.71,5.49-6.55,5.49-2.48,0-4.99-.44-4.99-2.31Z"/>
        <path class="cls-1" d="M182.52,62.5v9.2h1.33v1.7c-.77.37-2.28.69-2.97.69-1.15,0-1.82-.64-2.05-1.84-.95,1.5-2.38,1.97-3.79,1.97-1.48,0-3.45-.34-3.45-3.44v-6h-1.33v-1.7c.77-.37,2.12-.69,3.3-.69,1.77,0,1.89,1.08,1.89,1.92v5.58c0,1.18.31,1.75,1.18,1.75,1.2,0,2.02-.62,2.02-1.84v-7.28h3.86Z"/>
        <path class="cls-1" d="M193.39,71.7h1.33v1.7c-.77.37-2.28.69-2.97.69-1.89,0-2.23-.76-2.23-2.39v-6.94h-1.33v-1.7c.87-.44,2.17-.69,3.17-.69.92,0,2.02.52,2.02,1.84v7.48ZM191.29,60.34c-1.1,0-2.05-.62-2.05-2.07s.69-2.07,2.05-2.07c1.1,0,2.05.57,2.05,2.07,0,1.4-.95,2.07-2.05,2.07Z"/>
        <path class="cls-1" d="M206.49,73.82s-1.25.32-2.97.32c-2.97,0-3.2-1.77-3.2-3.94v-5.53h-1.25v-1.67s1.82-.62,2.41-2.48l.46-1.48,2.25-.15v3.54h2.3v2.24h-2.3v5.71c0,1.13.38,1.5,1.05,1.5.51,0,1.25-.2,1.25-.2v2.14Z"/>
        <path class="cls-1" d="M211.38,68.6c0-5.68,3.17-6.4,5.78-6.4,2.28,0,4.81.71,4.81,3.52,0,2.58-2.53,3.12-4.66,3.12-.82,0-1.54-.1-2-.15.1,2.41,1.05,3.05,2.89,3.05.95,0,1.74-.15,2.92-.66l.36,2.02c-.77.52-2.41,1.16-4.63,1.16-3.35,0-5.48-1.75-5.48-5.66ZM217.29,64.27c-1.07,0-1.94.49-1.94,2.63.41.07.9.15,1.69.15.84,0,1.56-.49,1.56-1.48,0-.76-.31-1.3-1.31-1.3Z"/>
        <path class="cls-1" d="M252.81,73.55c-.79.34-1.84.54-2.89.54-1.69,0-2.15-.49-2.74-2.51l-.46-1.62h-5.01l-1.28,4.06h-3.33l5.99-16.8h3.92l3.89,12.2c.72,2.26.84,2.43,1.92,2.43v1.7ZM246.1,67.59l-1.82-6.69-2.05,6.69h3.86Z"/>
      </g>
      <g>
        <path class="cls-1" d="M202.58,98.89c-2.02,0-3.74-.88-3.74-6.11s1.84-6.84,4.36-6.84c.88,0,1.63.09,2.32.54l-.27,1.31s-.59-.54-2.13-.54c-2.07,0-2.48,2.49-2.5,4.43.4-.52,1.38-1,2.59-1,1.92,0,3.36,1,3.36,3.86,0,2.08-1.06,4.35-3.99,4.35ZM202.68,91.95c-1.06,0-1.65.5-2.03.92,0,2.75.34,4.81,2,4.81,1.36,0,2.15-1.03,2.15-3.08,0-1.86-.69-2.66-2.11-2.66Z"/>
        <path class="cls-1" d="M213.91,98.89c-3.17,0-3.72-2.05-3.72-3.26,0-1.64.86-2.86,2.65-3.51-1.52-.72-2.27-1.79-2.27-3.23,0-1.09.61-2.95,3.71-2.95,2.84,0,3.44,1.64,3.44,2.79,0,1.94-1.42,2.9-2.3,3.3,2.15.7,2.61,1.96,2.61,3.21,0,1.44-.65,3.65-4.11,3.65ZM213.91,92.65c-1.38.57-2.05,1.46-2.05,2.77s.67,2.27,2.25,2.27,2.09-1.03,2.09-2.16c0-1.55-.98-2.34-2.28-2.88ZM214.1,87.14c-1.38,0-1.79.77-1.79,1.84,0,.77.4,1.64,2.17,2.47.96-.61,1.54-1.35,1.54-2.47s-.52-1.84-1.92-1.84Z"/>
        <path class="cls-1" d="M225.04,87.5h-1.57v-.87c.35-.18,1.67-.68,2.65-.68.65,0,.71.33.71,1.24v11.42h-1.79v-11.11Z"/>
        <path class="cls-1" d="M237.15,98.89c-2.57,0-3.94-1.6-3.94-6.57s1.54-6.38,3.94-6.38c2.25,0,3.93,1.18,3.93,6.38,0,4.45-1.4,6.57-3.93,6.57ZM237.15,87.14c-1.71,0-2.15,1.35-2.15,5.18,0,3.49.44,5.37,2.15,5.37s2.15-1.86,2.15-5.37c0-3.84-.52-5.18-2.15-5.18Z"/>
        <path class="cls-1" d="M251.54,94.44h1.27l-.15,1.4h-1.11v2.77h-1.79v-2.77s.13,0-5.03,0v-1.31l5.41-8.52h1.4v8.43ZM249.75,94.44v-5.76l-3.59,5.76h3.59Z"/>
      </g>
    </g>
  </g>
</svg>