<?xml version="1.0" encoding="UTF-8"?>
<svg id="Layer_2" data-name="Layer 2" xmlns="http://www.w3.org/2000/svg" viewBox="0 0 733.88 1339.19">
  <defs>
    <style>
      .cls-1 {
        fill: #ffca5f;
      }
    </style>
  </defs>
  <g id="Layer_2-2" data-name="Layer 2">
    <g>
      <path class="cls-1" d="m51.66,1262.17c.87,1.64.46,3.67-.99,4.83-4.47,3.56-9.79,5.56-14.98,5.56-11.23,0-19.21-12.87-19.21-30.88v-84.44H4.21c-2.33,0-4.21-1.88-4.21-4.21h0c0-2.33,1.88-4.21,4.21-4.21h12.28v-155.78c0-1.8,1.46-3.26,3.26-3.26h0c1.8,0,3.26,1.46,3.26,3.26v155.78h25.87c2.33,0,4.21,1.88,4.21,4.21h0c0,2.33-1.88,4.21-4.21,4.21h-25.87v84.44c0,13.1,5.44,22.46,13.05,22.46,3.4,0,6.89-1.22,10.01-3.3,1.92-1.28,4.51-.7,5.6,1.34h0Z"/>
      <path class="cls-1" d="m149.74,1192.81v73.77c0,1.75-1.64,3.16-3.66,3.16h0c-2.02,0-3.66-1.42-3.66-3.16v-72.64c0-21.11-13.63-36.09-32.96-36.09s-33.57,15.43-33.57,36.99v71.73c0,1.75-1.64,3.16-3.66,3.16h0c-2.02,0-3.66-1.42-3.66-3.16v-202.93c0-2.02,1.64-3.66,3.66-3.66h0c2.02,0,3.66,1.64,3.66,3.66v109.18c5.29-14.07,18.11-23.15,34.59-23.15,22.99,0,39.27,17.93,39.27,43.12Z"/>
      <path class="cls-1" d="m214.21,1149.97v.93c0,1.88-1.41,3.5-3.28,3.69-19.45,1.94-32.96,21.18-32.96,47.56v64.34c0,1.8-1.46,3.26-3.26,3.26h0c-1.8,0-3.26-1.46-3.26-3.26v-114.5c0-1.75,1.42-3.17,3.17-3.17h.18c1.75,0,3.17,1.42,3.17,3.17v24.43c3.66-15.7,16.67-28.23,32.12-30.15,2.19-.27,4.12,1.49,4.12,3.7Z"/>
      <path class="cls-1" d="m312.67,1242.22h0c1.21,1.46,1.19,3.58-.05,5.01-8.67,10-21.32,20.83-36.74,20.83-27.8,0-51.18-27.97-51.18-61.36s22.57-60.68,51.18-60.68,48.25,24.26,49.5,60.95c.07,2.07-1.6,3.79-3.67,3.79h-85.57c-2.16,0-3.87,1.88-3.6,4.02,3.2,25.21,21.91,45.16,43.35,45.16,13.26,0,22.82-8.46,30.87-17.79,1.57-1.81,4.39-1.77,5.92.07Zm-76.54-39.58h78.14c2.15,0,3.86-1.84,3.66-3.97-2.49-26.88-18.6-44.53-42.05-44.53-22.21,0-40.24,19.16-43.36,44.49-.26,2.14,1.45,4.01,3.6,4.01Z"/>
      <path class="cls-1" d="m340.44,1248.92h0c1.21-1.99,3.92-2.49,5.72-1.01,10.1,8.31,21.51,13.23,31.45,13.23,14.13,0,25.91-10.29,25.91-22.46,0-13.57-9.29-23.49-28.68-31.21-22.29-8.89-31.16-14.45-31.16-30.59s14.13-30.88,30.98-30.88c11.05,0,23.37,5.15,33.52,13.57l-3.99,6.55c-9.06-7.25-19.93-11.7-29.53-11.7-13.23,0-24.46,9.82-24.46,21.52s7.97,15.85,27.9,24.04c21.74,8.89,31.94,20.68,31.94,37.76s-14.86,31.81-32.43,31.81c-12.5,0-25.95-5.9-36.53-15.8-1.33-1.25-1.6-3.27-.65-4.83Z"/>
      <path class="cls-1" d="m506.78,1190.45v75.79c0,1.94-1.57,3.5-3.5,3.5h-.24c-1.94,0-3.5-1.57-3.5-3.5v-74.62c-2.83-21.75-13.56-32.02-32.6-35.19-12.01-2-33.21,13.91-33.21,36.13v73.69c0,1.94-1.57,3.5-3.5,3.5h-.24c-1.94,0-3.5-1.57-3.5-3.5v-205.21c0-1.72,1.39-3.11,3.11-3.11h1.03c1.72,0,3.11,1.39,3.11,3.11v108.83c5.23-14.5,17.95-23.02,34.21-21.86,22.74,1.62,36.77,16.48,38.84,42.44Z"/>
      <path class="cls-1" d="m521.59,1207.17c0-33.03,22.6-60.66,49.23-60.66s49.05,27.63,49.05,60.66-22.41,60.89-49.05,60.89-49.23-27.86-49.23-60.89Zm91.67,0c0-28.53-19.47-52.57-42.44-52.57s-42.62,24.04-42.62,52.57,19.47,52.8,42.62,52.8,42.44-24.04,42.44-52.8Z"/>
      <path class="cls-1" d="m638.99,1057.93h.21c1.74,0,3.16,1.41,3.16,3.16v208.67h-6.52v-208.67c0-1.74,1.41-3.16,3.16-3.16Z"/>
      <path class="cls-1" d="m725.69,1001.77v147.96c0,2.95-3.18,4.9-5.75,3.46-6.03-3.38-12.88-5.21-20.32-5.21-24.67,0-45.43,27.64-45.43,60.68s20.76,60.9,45.43,60.9c7.79,0,14.93-2.02,21.16-5.7,2.17-1.28,4.91.28,4.91,2.8h0c0,1.7,1.38,3.09,3.09,3.09h.47c1.96,0,3.55-1.59,3.55-3.55v-264.42c0-1.96-1.59-3.55-3.55-3.55h0c-1.96,0-3.55,1.59-3.55,3.55Zm0,248.6c-6.54,7.05-15.02,11.09-24.69,11.09-21.55,0-39.76-24.05-39.76-52.81s18.21-52.59,39.76-52.59c9.67,0,18.15,4.04,24.69,11.07v83.24Z"/>
    </g>
    <path class="cls-1" d="m686.45,0H16.49v1030.81c2.17-.37,4.46-.5,6.52-.16V8.5h656.28c25.63,0,46.4,20.77,46.4,46.4v977.55s.04,0,.05,0c2.38.25,4.74.3,7.06.88l.05-986.94c0-25.63-20.77-46.41-46.4-46.41Z"/>
    <g>
      <path class="cls-1" d="m522.6,1322.57l.1-.14c.35-.5,1.04-.59,1.54-.24,3.42,2.46,7.31,3.93,10.69,3.93,4.7,0,8.62-2.93,8.62-6.4,0-3.87-2.59-6.27-9.04-8.47-7.42-2.53-10.37-5.4-10.37-10s4.7-8.8,10.31-8.8c3.33,0,7.02,1.21,10.19,3.22.53.34.68,1.04.32,1.56l-.08.11c-.34.47-.98.59-1.47.28-2.83-1.73-6.06-2.77-8.96-2.77-4.4,0-8.14,2.8-8.14,6.13s2.65,5.8,9.29,8.13c7.24,2.53,10.13,5.47,10.13,10.33s-4.95,9.07-10.79,9.07c-4.15,0-8.62-1.68-12.14-4.49-.44-.35-.51-1-.19-1.46Z"/>
      <path class="cls-1" d="m577.26,1294.34v32.29c0,.6-.49,1.09-1.09,1.09h0c-.6,0-1.09-.49-1.09-1.09v-1.01c0-1.01-1.24-1.46-1.91-.7-1.96,2.25-4.88,3.59-8.34,3.59-6.81,0-11.64-5.27-11.64-12.67v-21.51c0-.6.49-1.09,1.09-1.09h0c.6,0,1.09.49,1.09,1.09v21.18c0,6.2,4.04,10.6,9.77,10.6,5.85,0,9.95-4.53,9.95-10.87v-20.91c0-.6.49-1.09,1.09-1.09h0c.6,0,1.09.49,1.09,1.09Z"/>
      <path class="cls-1" d="m615.38,1310.46c0,9.8-6.39,18.07-13.99,18.07-4.22,0-7.82-1.85-10.38-5-.65-.79-1.93-.35-1.93.68v13.91c0,.6-.49,1.09-1.09,1.09h0c-.6,0-1.09-.49-1.09-1.09v-43.76c0-.6.49-1.09,1.09-1.09h0c.6,0,1.09.49,1.09,1.09v2.44c0,1.02,1.28,1.47,1.93.68,2.56-3.14,6.16-5,10.38-5,7.6,0,13.99,8.2,13.99,18Zm-2.17,0c0-8.47-5.61-15.6-12.24-15.6-6.93,0-11.88,6.47-11.88,15.6,0,9.2,4.95,15.67,11.88,15.67,6.63,0,12.24-7.13,12.24-15.67Z"/>
      <path class="cls-1" d="m652.1,1310.46c0,9.8-6.39,18.07-13.99,18.07-4.22,0-7.82-1.85-10.38-5-.65-.79-1.93-.35-1.93.68v13.91c0,.6-.49,1.09-1.09,1.09h0c-.6,0-1.09-.49-1.09-1.09v-43.76c0-.6.49-1.09,1.09-1.09h0c.6,0,1.09.49,1.09,1.09v2.44c0,1.02,1.28,1.47,1.93.68,2.56-3.14,6.16-5,10.38-5,7.6,0,13.99,8.2,13.99,18Zm-2.17,0c0-8.47-5.61-15.6-12.24-15.6-6.93,0-11.88,6.47-11.88,15.6,0,9.2,4.95,15.67,11.88,15.67,6.63,0,12.24-7.13,12.24-15.67Z"/>
      <path class="cls-1" d="m658.26,1310.46c0-9.8,7.42-18,16.16-18,8.74,0,16.1,8.2,16.1,18,0,9.8-7.36,18.07-16.1,18.07-8.74,0-16.16-8.27-16.16-18.07Zm30.09,0c0-8.47-6.39-15.6-13.93-15.6-7.6,0-13.99,7.13-13.99,15.6,0,8.53,6.39,15.67,13.99,15.67,7.54,0,13.93-7.13,13.93-15.67Z"/>
      <path class="cls-1" d="m712.65,1293.6v.22c0,.56-.42,1.03-.98,1.08-6.54.5-11.08,6-11.08,13.56v18.18c0,.6-.49,1.09-1.09,1.09h0c-.6,0-1.09-.49-1.09-1.09v-32.29c0-.6.49-1.09,1.09-1.09h0c.6,0,1.09.49,1.09,1.09v2.31c0,1.04,1.3,1.47,1.94.66,2.05-2.62,5.29-4.46,8.92-4.8.64-.06,1.19.44,1.19,1.09Z"/>
      <path class="cls-1" d="m733.72,1325.48c.31.5.17,1.15-.31,1.48-1.48,1-3.24,1.56-4.95,1.56-3.74,0-6.39-3.67-6.39-8.8v-22.98c0-.6-.49-1.09-1.09-1.09h-3.32c-.6,0-1.09-.49-1.09-1.09v-.23c0-.6.49-1.09,1.09-1.09h3.32c.6,0,1.09-.49,1.09-1.09v-7.3c0-.6.49-1.09,1.09-1.09h0c.6,0,1.09.49,1.09,1.09v7.3c0,.6.49,1.09,1.09,1.09h6.03c.6,0,1.09.49,1.09,1.09v.23c0,.6-.49,1.09-1.09,1.09h-6.03c-.6,0-1.09.49-1.09,1.09v22.98c0,3.73,1.81,6.4,4.34,6.4,1.22,0,2.47-.4,3.56-1.08.52-.32,1.19-.19,1.51.33l.07.11Z"/>
    </g>
  </g>
</svg>