<?xml version="1.0" encoding="UTF-8"?>
<svg id="Layer_2" data-name="Layer 2" xmlns="http://www.w3.org/2000/svg" viewBox="0 0 324.92 162.02">
  <defs>
    <style>
      .cls-1 {
        fill: #f1f1f1;
      }
    </style>
  </defs>
  <g id="Option_1" data-name="Option 1">
    <g id="Text">
      <g>
        <path class="cls-1" d="M5.21,152.61l5.55-26.12h-3.9l.43-2.13c1.26-.48,5.25-1.52,6.29-1.52.87,0,1.17.26,1.17.91,0,.39-.13.95-.26,1.69l-5.77,27.16h-3.51Z"/>
        <path class="cls-1" d="M46.03,128.23c0,8.33-9.63,15.57-16.4,20.61h12.32l-1.3,3.77h-16.35l.78-2.3c10.15-8.5,16.88-14.58,16.88-20.43,0-2.39-.82-3.95-3.9-3.95-2.52,0-4.99.95-6.85,2.69l-.26-2.47c2.26-2.21,5.64-3.34,8.46-3.34,4.77,0,6.64,2.34,6.64,5.42Z"/>
        <path class="cls-1" d="M51.97,150.96c0-2.13,1.26-2.91,2.73-2.91,1.17,0,2.08.56,2.08,1.82,0,2.13-1.13,3.04-2.78,3.04-1.35,0-2.04-.87-2.04-1.95ZM55.05,134.65c0-2.13,1.26-2.91,2.73-2.91,1.17,0,2.08.56,2.08,1.82,0,2.13-1.13,3.04-2.78,3.04-1.35,0-2.04-.87-2.04-1.95Z"/>
        <path class="cls-1" d="M86.1,128.1c0,4.69-2.56,7.59-6.2,8.68l-.04.26c2.56.3,4.42,2.47,4.42,5.68,0,5.51-3.77,10.37-10.5,10.37-4.64,0-6.9-1.21-8.07-2.43l1.34-2.86c1.87,1.87,4.08,2.39,6.59,2.39,4.03,0,6.85-2.69,6.85-6.98,0-3.25-1.04-4.86-4.47-4.86h-3.73l.52-2.43h3.34c3.47,0,6.2-2.86,6.2-6.12,0-2.73-.91-3.86-4.34-3.86-2.13,0-4.64.95-6.51,2.69l-.26-2.47c1.69-2.04,5.38-3.34,8.11-3.34,4.51,0,6.72,2.17,6.72,5.29Z"/>
        <path class="cls-1" d="M108.7,146.53c-2.17,4.29-5.21,6.72-9.46,6.72-4.82,0-6.51-2.78-6.51-7.55s1.13-10.37,3.17-15.27c2.65-6.2,6.16-7.64,9.8-7.64,3.99,0,6.81,1.61,6.81,7.42,0,3.99-1.39,11.54-3.82,16.31ZM108.83,130.09c0-3.56-1.21-5.08-3.6-5.08-2.78,0-4.55,1.74-6.07,6.25-1.43,4.38-2.73,9.33-2.73,14.14,0,3.69.95,5.64,3.69,5.64s4.47-2.43,5.73-5.99c1.52-4.21,2.99-10.28,2.99-14.97Z"/>
        <path class="cls-1" d="M149.73,139.12h-8.89l.61-2.73h8.89l-.61,2.73Z"/>
        <path class="cls-1" d="M192.15,145.97h-2.47l-1.39,6.64h-3.51l1.39-6.64h-12.1l.87-2.73,16.7-20.35h2.95l-4.34,20.35h2.95l-1.04,2.73ZM189.98,128.14l-12.19,15.1h8.98l3.21-15.1Z"/>
        <path class="cls-1" d="M201.04,150.96c0-2.13,1.26-2.91,2.73-2.91,1.17,0,2.08.56,2.08,1.82,0,2.13-1.13,3.04-2.78,3.04-1.35,0-2.04-.87-2.04-1.95ZM204.12,134.65c0-2.13,1.26-2.91,2.73-2.91,1.17,0,2.08.56,2.08,1.82,0,2.13-1.13,3.04-2.78,3.04-1.35,0-2.04-.87-2.04-1.95Z"/>
        <path class="cls-1" d="M235.18,128.1c0,4.69-2.56,7.59-6.2,8.68l-.04.26c2.56.3,4.42,2.47,4.42,5.68,0,5.51-3.77,10.37-10.5,10.37-4.64,0-6.9-1.21-8.07-2.43l1.34-2.86c1.87,1.87,4.08,2.39,6.59,2.39,4.03,0,6.85-2.69,6.85-6.98,0-3.25-1.04-4.86-4.47-4.86h-3.73l.52-2.43h3.34c3.47,0,6.2-2.86,6.2-6.12,0-2.73-.91-3.86-4.34-3.86-2.13,0-4.64.95-6.51,2.69l-.26-2.47c1.69-2.04,5.38-3.34,8.11-3.34,4.51,0,6.72,2.17,6.72,5.29Z"/>
        <path class="cls-1" d="M257.78,146.53c-2.17,4.29-5.21,6.72-9.46,6.72-4.82,0-6.51-2.78-6.51-7.55s1.13-10.37,3.17-15.27c2.65-6.2,6.16-7.64,9.8-7.64,3.99,0,6.81,1.61,6.81,7.42,0,3.99-1.39,11.54-3.82,16.31ZM257.91,130.09c0-3.56-1.21-5.08-3.6-5.08-2.78,0-4.55,1.74-6.07,6.25-1.43,4.38-2.73,9.33-2.73,14.14,0,3.69.95,5.64,3.69,5.64s4.47-2.43,5.73-5.99c1.52-4.21,2.99-10.28,2.99-14.97Z"/>
        <path class="cls-1" d="M275.3,135.69c1.56-2.69,3.99-3.64,6.72-3.64,3.12,0,5.12,2.08,5.12,6.59,0,7.38-3.99,14.4-10.58,14.4-1.87,0-3.3-.17-4.73-.82l-2.04,9.8h-3.34l5.86-27.16h-2.08l.39-1.95c.87-.39,2.17-.61,3.08-.61,1.21,0,1.74.56,1.74,1.65,0,.56-.13,1.21-.3,1.74h.17ZM280.16,134.73c-2.91,0-5.16,3.17-5.94,6.59l-1.78,7.94c.48.65,1.6,1.69,4.12,1.69,5.03,0,7.07-7.81,7.07-11.89,0-2.65-.91-4.34-3.47-4.34Z"/>
        <path class="cls-1" d="M320.11,150.18h2.04l-.39,1.95c-.87.39-2.39.61-3.3.61-1.34,0-1.69-.78-1.69-1.65,0-.35.04-.52.13-.95l2.34-11.02c.17-.87.35-1.82.35-2.47,0-1.3-.52-2-2.34-2-3.04,0-4.9,2.04-5.6,5.25l-2.73,12.71h-3.21l2.78-13.14c.13-.69.35-1.73.35-2.39,0-2-.69-2.43-2.26-2.43-2.78,0-5.16,3.25-5.77,5.99l-2.6,11.97h-3.21l3.77-17.83h-2.17l.3-1.56c.82-.43,2.13-.91,3.25-.91,1.39,0,1.65.78,1.65,1.91,0,.43-.04,1.13-.13,1.6h.17c1.39-2.91,3.95-4.03,6.33-4.03,2.86,0,3.6,1.56,3.6,4.29,1.69-3.25,5.42-4.29,7.72-4.29,1.39,0,3.6.48,3.6,3.25,0,.69-.09,1.39-.3,2.39l-2.69,12.75Z"/>
      </g>
      <g>
        <path class="cls-1" d="M14.84,22.47c0-3.6-1.04-4.29-5.99-7.07-4.03-2.26-5.55-3.86-5.55-6.9C3.3,2.34,8.11,0,13.58,0c2.52,0,6.72.56,6.72,2.78,0,.95-.78,2.65-1.6,4.12h-2.65l.87-4.21c-.95-.26-1.87-.43-3.64-.43-4.21,0-6.25,2.08-6.25,5.29,0,2.78,1.52,3.69,5.34,5.68,3.77,1.95,6.2,3.95,6.2,7.77,0,5.68-4.29,9.46-10.76,9.46-3.51,0-7.81-.78-7.81-3.64,0-1.3.56-2.91,1.3-3.86h2.65c-.26,1.6-.26,1.82-.26,2.04,0,2.08,1.3,3.25,4.64,3.25,3.64,0,6.51-2.17,6.51-5.77Z"/>
        <path class="cls-1" d="M57.52,21.73h-10.02l-3.99,8.07h-3.6L55.87.09h4.12l.95,20.78c.26,5.73.35,6.38,2.3,6.38l-.43,2.04c-.74.35-1.78.65-2.73.65-1.65,0-2.3-.95-2.56-8.2ZM57.52,19.3l-.61-16.01-8.24,16.01h8.85Z"/>
        <path class="cls-1" d="M94.25,2.6c-2.6.09-5.73.22-8.37.22l.78-2.65h19.83l-.78,2.65c-2.91,0-5.21-.13-7.94-.22l-5.77,27.2h-3.51l5.77-27.2Z"/>
        <path class="cls-1" d="M128.56,2.73l.43-2.04c.87-.39,2.43-.65,3.38-.65,1.26,0,1.82.3,1.82,1.17,0,.26-.09.87-.26,1.6l-3.9,18.22c-.22,1.08-.35,2.08-.35,2.95,0,2.39,1.74,3.95,4.95,3.95,4.99,0,6.94-2.82,7.81-6.9L146.87.17h2.95l-4.34,20.43c-1.43,6.72-5.08,9.85-11.19,9.85s-8.2-2.13-8.2-5.99c0-1.04.17-2.17.43-3.43l3.9-18.31h-1.87Z"/>
        <path class="cls-1" d="M174.54.69c1.65-.3,7.07-.69,9.46-.69,6.07,0,8.03,2.26,8.03,5.64,0,4.9-2.69,9.89-7.98,10.93,2.43,8.24,2.86,11.11,5.73,11.11l-.3,1.73c-.87.39-1.52.69-2.73.69-2.6,0-3.17-2.43-5.03-9.72l-.74-2.91c-1.47,0-3.6-.04-4.6-.22l-2.65,12.54h-3.51l5.77-27.07h-1.87l.43-2.04ZM182.52,2.43c-1.08,0-2.21.09-3.08.22l-2.65,12.45c.61.04,1.17.04,2.34.04,5.6,0,9.15-2.82,9.15-8.72,0-3.86-3.3-3.99-5.77-3.99Z"/>
        <path class="cls-1" d="M216.96.69c1.39-.39,7.11-.69,8.98-.69,4.73,0,12.15.17,12.15,10.15s-6.07,20.3-17.92,20.3c-4.21,0-6.81-1.17-6.81-3.6,0-.35.04-.69.43-2.47l4.6-21.65h-1.87l.43-2.04ZM226.33,2.43c-2.04,0-2.91.04-4.42.22l-4.51,21.13c-.22,1-.35,1.95-.35,2.17,0,1.26.95,2.17,3.69,2.17,9.76,0,13.62-11.54,13.62-17.74,0-7.37-4.21-7.94-8.03-7.94Z"/>
        <path class="cls-1" d="M275.08,21.73h-10.02l-3.99,8.07h-3.6L273.44.09h4.12l.95,20.78c.26,5.73.35,6.38,2.3,6.38l-.43,2.04c-.74.35-1.78.65-2.73.65-1.65,0-2.3-.95-2.56-8.2ZM275.08,19.3l-.61-16.01-8.24,16.01h8.85Z"/>
        <path class="cls-1" d="M303.45,2.73l.43-2.04c.87-.39,2.26-.65,3.21-.65,1.6,0,2.78.61,4.69,17.4L321.19.13h3.73l-12.36,20.09-2.04,9.59h-3.56l2.04-9.59c-.91-6.2-2.69-15.88-3.43-17.48h-2.13Z"/>
      </g>
      <g>
        <path class="cls-1" d="M23.01,50.06l11.32,31.31,13.64-38.17h16.55v50.95h3.69v6.09c-2.66.86-7.03,1.8-11.58,1.8-5.23,0-6-2.92-6-6.95v-21.61c0-3.43.34-13.21.94-16.47h-.43l-16.04,44.77h-6.43l-12.27-31.48c-1.89-4.72-3.34-9.09-3.77-13.29h-.43l1.11,44.77H3.02l1.37-50.95H.45v-6.09c3-1.03,8.32-1.8,11.58-1.8,6.43,0,8.58.43,10.98,7.12Z"/>
        <path class="cls-1" d="M124.64,100.15c-2.66,1.2-6.18,1.89-9.69,1.89-5.66,0-7.2-1.72-9.18-8.75l-1.54-5.66h-16.81l-4.29,14.15h-11.15l20.07-58.58h13.12l13.04,42.54c2.4,7.89,2.83,8.49,6.43,8.49v5.92ZM102.17,79.39l-6.09-23.33-6.86,23.33h12.95Z"/>
        <path class="cls-1" d="M120.35,50.83v-6.09c2.14-.86,7.29-1.72,9.18-1.72,6.52,0,9.01,1.29,14.15,18.87l3.52,12.09,8.83-30.79h10.81l-15.44,38.25v20.33h-13.89v-20.33l-6.26-15.52c-2.23-5.58-4.03-10.46-6.95-15.1h-3.95Z"/>
        <path class="cls-1" d="M201.82,56.49l-3-8.15c2.14-1.89,7.29-5.49,16.12-5.49,11.58,0,16.3,4.89,16.3,13.12s-5.06,12.44-11.24,13.98v.77c9.01,1.46,12.61,4.97,12.61,14.24,0,11.06-7.55,18.1-21.36,18.1-6.78,0-10.98-2.14-13.47-4.2l1.37-8.75c4.46,3.69,8.23,4.37,11.92,4.37s8.23-1.8,8.23-10.89c0-5.92-2.06-8.15-8.66-8.15h-6.78v-7.03h7.46c5.32,0,7.2-4.46,7.2-9.52,0-5.83-2.4-7.55-6.52-7.55-2.83,0-6.35,1.03-10.21,5.15Z"/>
        <path class="cls-1" d="M269.32,101.78h-13.89v-49.66h-6.69v-5.75c4.2-1.72,10.98-3.43,15.1-3.43,3.43,0,5.49.86,5.49,4.97v53.86Z"/>
      </g>
      <g>
        <path class="cls-1" d="M291.24,63.5h10.66l-.52,5.09h-14.71l.15-4.12c4.16-4.01,8.91-8.73,8.91-14.04,0-2.93-1.23-3.53-2.64-3.53-1.52,0-2.71.45-4.38,2.23l-1.19-3.68c.93-.82,3.19-2.38,6.72-2.38,5.35,0,7.28,2.9,7.28,6.61,0,6.2-6.02,10.73-10.29,13.82Z"/>
        <path class="cls-1" d="M314.08,69.19c-5.39,0-8.32-2.38-8.32-13.15s3.42-12.96,8.32-12.96c4.64,0,8.32,1.56,8.32,12.96,0,10.81-3.31,13.15-8.32,13.15ZM314.08,46.34c-1.93,0-2.45,1.37-2.45,9.69,0,7.87.48,9.84,2.45,9.84s2.45-2.08,2.45-9.84-.48-9.69-2.45-9.69Z"/>
      </g>
      <g>
        <path class="cls-1" d="M291.24,97.18h10.66l-.52,5.09h-14.71l.15-4.12c4.16-4.01,8.91-8.73,8.91-14.04,0-2.93-1.23-3.53-2.64-3.53-1.52,0-2.71.45-4.38,2.23l-1.19-3.68c.93-.82,3.19-2.38,6.72-2.38,5.35,0,7.28,2.9,7.28,6.61,0,6.2-6.02,10.73-10.29,13.82Z"/>
        <path class="cls-1" d="M307.25,102l.67-3.71s1.56.67,2.97.67c3.27,0,4.53-1.49,4.53-4.9,0-2.15-.67-3.68-3.49-3.68-1.86,0-2.53.3-3.57.52l-.26-.22.48-13.78h11.74l-.37,5.09c-3.19,0-5.39,0-8.1-.19l-.26,5.39c.48-.07,1.26-.11,1.89-.11,3.71,0,8.21.48,8.21,6.61,0,4.98-2.86,9.14-9.62,9.14-1.71,0-2.93-.07-4.83-.82Z"/>
      </g>
    </g>
  </g>
</svg>