<?xml version="1.0" encoding="UTF-8"?>
<svg id="Layer_2" data-name="Layer 2" xmlns="http://www.w3.org/2000/svg" viewBox="0 0 167.96 94.61">
  <defs>
    <style>
      .cls-1 {
        fill: #f1f1f1;
      }
    </style>
  </defs>
  <g id="Option_1" data-name="Option 1">
    <g id="Text">
      <g>
        <path class="cls-1" d="M0,2.77V.63C.78.33,2.66.03,3.35.03,5.73.03,6.64.48,8.52,6.65l1.28,4.25L13.03.09h3.95l-5.64,13.43v7.13h-5.07v-7.13l-2.29-5.45c-.81-1.96-1.47-3.67-2.54-5.3H0Z"/>
        <path class="cls-1" d="M27.22,20.95c-4.01,0-7.05-1.81-7.05-7.44,0-6.74,4.6-7.32,7.21-7.32,4.13,0,7.2,1.11,7.2,7.32s-3.82,7.44-7.36,7.44ZM27.38,8.73c-1.5,0-2.38.81-2.38,4.79,0,3.37.69,4.91,2.38,4.91,1.5,0,2.38-.66,2.38-4.91,0-3.16-.41-4.79-2.38-4.79Z"/>
        <path class="cls-1" d="M54.85,20.11c0,4.76-2.32,7.11-7.3,7.11-2.22,0-4.29-.51-5.11-.99l.31-3.37c1.47.93,3.16,1.21,4.42,1.21,1.44,0,2.94-.48,2.94-2.65v-1.99c-1,1.14-2.07,1.54-3.57,1.54-3.16,0-5.45-2.05-5.45-7.2,0-5.54,2.51-7.65,8.18-7.65,1.75,0,4.23.27,5.58.42v13.58ZM50.12,8.7c-.28-.09-.53-.15-1.44-.15-1.94,0-2.76.93-2.76,4.85,0,4.12,1.38,4.67,2.51,4.67.88,0,1.69-.93,1.69-2.5v-6.86Z"/>
        <path class="cls-1" d="M76.15,19.9s-1.6.87-3.32.87c-1.82,0-2.22-.78-2.54-1.78-.85,1.48-2.66,1.93-4.45,1.93s-4.04-.99-4.04-4.15c0-3.91,3.26-5,7.17-5h.81v-.63c0-2.08-.91-2.08-2.13-2.08-1.44,0-2.85.3-4.54,1.48l-.19-3.16c2.16-.9,3.26-1.17,6.36-1.17,4.42,0,5.23,2.23,5.23,4.94v6.68h1.63v2.08ZM69.79,13.82c-2.26,0-3.16.63-3.16,2.29,0,.96.31,1.93,1.35,1.93,1.69,0,1.82-1.72,1.82-1.72v-2.5Z"/>
        <path class="cls-1" d="M108.47,10.33c1.03,1.69,1.57,2.44,1.82,3.61h.12l-.38-13.85h3.7l-.63,20.56h-3.6l-7.93-12.37c-.85-1.33-1.44-2.32-1.69-3.34h-.12l.31,15.71h-3.57l.19-17.88h-1.44V.63c1.1-.39,4.01-.63,4.76-.63,1.63,0,2.32.63,3.13,1.9l5.33,8.43Z"/>
        <path class="cls-1" d="M127.7,20.95c-4.01,0-7.05-1.81-7.05-7.44,0-6.74,4.6-7.32,7.21-7.32,4.13,0,7.2,1.11,7.2,7.32s-3.82,7.44-7.36,7.44ZM127.86,8.73c-1.5,0-2.38.81-2.38,4.79,0,3.37.69,4.91,2.38,4.91,1.5,0,2.38-.66,2.38-4.91,0-3.16-.41-4.79-2.38-4.79Z"/>
        <path class="cls-1" d="M146.96,16.65h.19l3.26-10.09h4.35l2.66,10.09h.19l1.85-10.09h3.32l-3.98,14.09h-4.26l-1.79-5.93c-.75-2.47-.85-3.19-.97-4.64h-.16c-.12,1.11-.66,3.07-1.38,4.94l-2.19,5.63h-4.13l-2-11.32h-1.63v-2.08c.88-.51,2.66-.84,3.35-.84,2.1,0,2.79,1.93,3.32,10.24Z"/>
      </g>
      <g>
        <path class="cls-1" d="M5.9,41.17c-1.38,0-2.57-.61-2.57-4.19s1.27-4.7,2.99-4.7c.61,0,1.12.06,1.59.37l-.18.9s-.41-.37-1.46-.37c-1.42,0-1.7,1.71-1.71,3.04.28-.35.95-.68,1.78-.68,1.32,0,2.31.68,2.31,2.65,0,1.43-.73,2.99-2.74,2.99ZM5.96,36.41c-.72,0-1.13.34-1.4.63,0,1.89.24,3.31,1.37,3.31.94,0,1.48-.71,1.48-2.12,0-1.28-.47-1.82-1.45-1.82Z"/>
        <path class="cls-1" d="M13.41,33.36h-1.08v-.6c.24-.13,1.15-.47,1.82-.47.45,0,.49.23.49.85v7.84h-1.23v-7.62Z"/>
        <path class="cls-1" d="M21.73,41.17c-1.77,0-2.7-1.1-2.7-4.51s1.05-4.38,2.7-4.38c1.54,0,2.7.81,2.7,4.38,0,3.05-.96,4.51-2.7,4.51ZM21.73,33.11c-1.17,0-1.48.92-1.48,3.56,0,2.39.3,3.69,1.48,3.69s1.48-1.28,1.48-3.69c0-2.63-.36-3.56-1.48-3.56Z"/>
        <path class="cls-1" d="M27.25,33.54l.18-1.2h4.88l-.05.79-3.18,7.87h-1.28l3.64-7.45h-4.19Z"/>
        <path class="cls-1" d="M41.76,33.78l-.03,7.21h-1.04l.33-7.88h-.58v-.59c.24-.13.92-.22,1.24-.22.61,0,.8.06.96.47l2.44,6.33,2.5-6.76h1.61v7.84h.63v.63c-.3.1-.82.22-1.13.22-.73,0-.73-.49-.73-.85v-4.94c0-.39.01-1.05.08-1.46h-.05l-2.77,7.21h-.69l-2.28-5.89c-.25-.65-.34-.91-.45-1.32h-.05Z"/>
        <path class="cls-1" d="M57.72,40.73s-.36.3-.96.3c-.75,0-.78-.82-.78-.82-.36.73-1,.9-1.66.9-.82,0-1.69-.44-1.69-1.71,0-1.62.99-1.99,2.62-1.99h.72v-.58c0-.96-.66-.96-1.19-.96-.37,0-1.25.16-1.74.41v-1.05c.36-.11,1.16-.32,2.15-.32,1.95,0,1.95,1.05,1.95,1.96v3.29h.57v.57ZM55.98,38.12c-1.54.06-2.15.13-2.15,1.1,0,.56.29.95,1.01.95s1.13-.52,1.13-.91v-1.14Z"/>
        <path class="cls-1" d="M60.82,43.73v-7.79h-.65v-.59c.21-.14.63-.29.99-.29.72,0,.72.72.72.72,0,0,.28-.8,1.67-.8,1.54,0,2.08,1.09,2.08,2.91,0,2.84-1.5,3.22-2.21,3.22-.86,0-1.23-.13-1.46-.28v2.9h-1.15ZM63.14,35.89c-1.05,0-1.17.67-1.17,1.22v3.01c.2.11.65.22,1.03.22.87,0,1.48-.46,1.48-2.34,0-1.38-.28-2.1-1.33-2.1Z"/>
        <path class="cls-1" d="M70.11,40.21h.55v.59c-.24.13-.66.22-.98.22-.72,0-.72-.49-.72-.85v-6.95h-.65v-.59c.21-.14.63-.29.99-.29.72,0,.8.54.8.85v7.03Z"/>
        <path class="cls-1" d="M73.32,38.1c0-2.58,1.23-3.19,2.7-3.19.84,0,1.98.23,1.98,1.63,0,1.22-1.04,1.61-2.11,1.61-.72,0-1.4-.1-1.4-.1,0,1.91.92,2.13,1.7,2.13,1.08,0,1.58-.33,1.58-.33l.18.66c-.24.23-.87.61-2.04.61-1.27,0-2.6-.56-2.6-3.01ZM75.86,35.72c-.45,0-1.36.24-1.36,1.62,0,0,.5.08,1.28.08.61,0,1.08-.23,1.08-.87,0-.54-.33-.82-1-.82Z"/>
        <path class="cls-1" d="M90.63,38.69c0-1.04-.94-1.29-2.27-1.96-1.07-.53-1.94-1.01-1.94-2.29s.83-2.15,2.77-2.15c.94,0,2.4.15,2.4.9,0,.32-.04.71-.25,1.27h-.9v-1.22c-.4-.09-.79-.13-1.13-.13-1.09,0-1.62.33-1.62,1.14s.42,1.1,1.83,1.73c1.41.63,2.43,1.32,2.43,2.55,0,1.86-1.46,2.65-3.11,2.65-1.01,0-2.4-.19-2.4-1.15,0-.29.01-.71.11-1h.9c.05,1.04.41,1.33,1.41,1.33,1.3,0,1.78-.68,1.78-1.66Z"/>
        <path class="cls-1" d="M97.69,40.92s-.49.13-.95.13c-1.37,0-1.45-.65-1.45-1.85v-3.33h-.82v-.58s.86-.24,1.11-1.42l.13-.61.73-.06v1.86h1.25v.81h-1.25v3.6c0,.57.21.76.7.76.34,0,.55-.08.55-.08v.77Z"/>
        <path class="cls-1" d="M100.96,41.09c-.49,0-.78-.34-.78-.75,0-.52.36-.76.78-.76s.79.24.79.76c0,.47-.32.75-.79.75Z"/>
        <path class="cls-1" d="M105.62,42.38l-.4-.23c.24-.3.42-.57.42-.97,0-.24-.21-.54-.61-.85.18-.35.47-.75.86-.75.47,0,.76.48.76.86,0,.65-.44,1.51-1.04,1.94Z"/>
        <path class="cls-1" d="M119.18,38.69c0-1.04-.94-1.29-2.27-1.96-1.07-.53-1.94-1.01-1.94-2.29s.83-2.15,2.77-2.15c.94,0,2.4.15,2.4.9,0,.32-.04.71-.25,1.27h-.9v-1.22c-.4-.09-.79-.13-1.13-.13-1.09,0-1.62.33-1.62,1.14s.42,1.1,1.83,1.73c1.41.63,2.43,1.32,2.43,2.55,0,1.86-1.46,2.65-3.11,2.65-1.02,0-2.4-.19-2.4-1.15,0-.29.01-.71.11-1h.9c.05,1.04.41,1.33,1.41,1.33,1.31,0,1.78-.68,1.78-1.66Z"/>
        <path class="cls-1" d="M127.41,39.91c-.57,1-1.36,1.18-2,1.18-.73,0-1.56-.18-1.56-1.7v-3.47h-.65v-.6c.37-.19.75-.29,1.07-.29.72,0,.72.52.72.87v3.08c0,.81.25,1.14.98,1.14.76,0,1.37-.53,1.37-1.17v-3.9h1.15v5.08h.65v.6c-.24.13-.75.29-1.07.29-.66,0-.66-.49-.66-.85v-.27Z"/>
        <path class="cls-1" d="M132.23,35.92h-.65v-.6c.24-.13.75-.29,1.07-.29.72,0,.72.52.72.87v4.23h.65v.6c-.24.13-.75.29-1.07.29-.72,0-.72-.52-.72-.87v-4.23ZM132.77,34.04c-.41,0-.75-.33-.75-.72s.34-.72.75-.72.75.33.75.72-.34.72-.75.72Z"/>
        <path class="cls-1" d="M139.52,40.92s-.49.13-.95.13c-1.37,0-1.45-.65-1.45-1.85v-3.33h-.82v-.58s.86-.24,1.11-1.42l.13-.61.73-.06v1.86h1.25v.81h-1.25v3.6c0,.57.21.76.7.76.34,0,.55-.08.55-.08v.77Z"/>
        <path class="cls-1" d="M142.2,38.1c0-2.58,1.23-3.19,2.7-3.19.84,0,1.98.23,1.98,1.63,0,1.22-1.04,1.61-2.11,1.61-.72,0-1.4-.1-1.4-.1,0,1.91.92,2.13,1.7,2.13,1.08,0,1.58-.33,1.58-.33l.18.66c-.24.23-.87.61-2.04.61-1.27,0-2.6-.56-2.6-3.01ZM144.75,35.72c-.45,0-1.36.24-1.36,1.62,0,0,.5.08,1.28.08.61,0,1.08-.23,1.08-.87,0-.54-.33-.82-1-.82Z"/>
        <path class="cls-1" d="M159.08,32.33l2.04,6.98c.24.84.33.9.78.9v.59c-.24.13-.59.22-.91.22-.62,0-.84-.29-1.27-1.96h-3.19l-.54,1.92h-1.21l2.99-8.65h1.3ZM159.5,38.25l-1.25-4.7-1.49,4.7h2.74Z"/>
      </g>
      <g>
        <path class="cls-1" d="M52.88,56.77c-2.44,0-3.52-1.45-3.52-4.39,0-3.46,1.82-4.27,3.52-4.27,1.96,0,3.52.63,3.52,4.27,0,2.85-1.18,4.39-3.52,4.39ZM52.88,48.92c-1.09,0-2.22.36-2.22,3.46,0,2.28.54,3.59,2.22,3.59,1.51,0,2.22-1.31,2.22-3.59,0-3.11-.94-3.46-2.22-3.46Z"/>
        <path class="cls-1" d="M67.07,55.76h.63v.58c-.23.12-.73.28-1.04.28-.71,0-.71-.51-.71-.85v-3.01c0-.75-.17-1.11-1.05-1.11-.53,0-1.03.28-1.03.94v3.99h-1.12v-3.82c0-.75-.33-1.11-1-1.11-.59,0-1.08.37-1.08.92v4.01h-1.12v-4.93h-.63v-.58c.21-.14.62-.28.96-.28.71,0,.71.85.71.85.31-.7,1.01-.97,1.67-.97.77,0,1.22.35,1.41,1.01.4-.88,1.21-1.01,1.89-1.01.58,0,1.5.2,1.5,1.68v3.42Z"/>
        <path class="cls-1" d="M75.21,56.34s-.35.29-.94.29c-.73,0-.76-.8-.76-.8-.35.71-.98.88-1.62.88-.79,0-1.64-.43-1.64-1.66,0-1.58.96-1.94,2.55-1.94h.71v-.57c0-.94-.64-.94-1.16-.94-.36,0-1.22.16-1.69.39v-1.02c.35-.11,1.13-.31,2.09-.31,1.9,0,1.9,1.02,1.9,1.91v3.21h.55v.56ZM73.51,53.8c-1.5.06-2.09.12-2.09,1.07,0,.54.28.92.99.92s1.1-.51,1.1-.89v-1.11Z"/>
        <path class="cls-1" d="M82.74,55.76h.63v.58c-.23.12-.73.28-1.04.28-.71,0-.71-.51-.71-.85v-2.98c0-.57-.22-1.12-1.14-1.12-.55,0-1.14.34-1.14,1.12v3.8h-1.12v-7.56h-.63v-.58c.21-.14.62-.28.96-.28.71,0,.78.53.78.83v2.59c.23-.42.69-.91,1.77-.91.6,0,1.63.25,1.63,1.85v3.24Z"/>
        <path class="cls-1" d="M90.87,56.34s-.35.29-.94.29c-.73,0-.76-.8-.76-.8-.35.71-.98.88-1.62.88-.79,0-1.64-.43-1.64-1.66,0-1.58.96-1.94,2.55-1.94h.71v-.57c0-.94-.64-.94-1.16-.94-.36,0-1.22.16-1.69.39v-1.02c.35-.11,1.13-.31,2.09-.31,1.9,0,1.9,1.02,1.9,1.91v3.21h.55v.56ZM89.18,53.8c-1.5.06-2.09.12-2.09,1.07,0,.54.28.92.99.92s1.1-.51,1.1-.89v-1.11Z"/>
        <path class="cls-1" d="M93.77,57.95l-.38-.22c.23-.3.41-.56.41-.95,0-.23-.21-.53-.59-.83.18-.35.46-.73.83-.73.46,0,.74.47.74.84,0,.63-.42,1.47-1.01,1.89Z"/>
        <path class="cls-1" d="M109.54,48.17l-.24,8.42h-1.04l-4.18-6.9.12,6.9h-1.09l.13-7.63h-.54v-.62c.23-.12.9-.21,1.21-.21.53,0,.67.15.91.55l3.72,6.14-.13-6.66h1.14Z"/>
        <path class="cls-1" d="M117.34,49.08l-3.2-.11v2.86l2.53-.11-.09.86-2.44-.09v2.36c0,.69.24.85,1.81.85.71,0,1.4-.06,2.01-.2l-.09.78c-.55.21-1.35.35-2.17.35-1.58,0-2.77-.2-2.77-1.38v-6.29h-.62v-.63c1.04-.14,3.02-.2,3.31-.2.51,0,1.14.01,1.81.01l-.1.94Z"/>
        <path class="cls-1" d="M128.33,56.77c-1.35,0-2.5-.59-2.5-4.08s1.23-4.57,2.91-4.57c.59,0,1.09.06,1.55.36l-.18.88s-.4-.36-1.42-.36c-1.39,0-1.66,1.66-1.67,2.96.27-.34.92-.67,1.73-.67,1.28,0,2.25.67,2.25,2.58,0,1.39-.71,2.91-2.67,2.91ZM128.39,52.14c-.71,0-1.1.33-1.36.62,0,1.84.23,3.22,1.33,3.22.91,0,1.44-.69,1.44-2.06,0-1.25-.46-1.78-1.41-1.78Z"/>
        <path class="cls-1" d="M135.9,56.77c-2.12,0-2.49-1.37-2.49-2.18,0-1.1.58-1.91,1.77-2.34-1.01-.48-1.51-1.2-1.51-2.16,0-.73.41-1.97,2.48-1.97,1.9,0,2.3,1.1,2.3,1.86,0,1.29-.95,1.94-1.54,2.21,1.44.47,1.75,1.31,1.75,2.15,0,.96-.44,2.44-2.75,2.44ZM135.9,52.61c-.92.38-1.37.97-1.37,1.85s.45,1.52,1.5,1.52,1.4-.69,1.4-1.44c0-1.04-.65-1.57-1.53-1.92ZM136.03,48.92c-.92,0-1.19.52-1.19,1.23,0,.52.27,1.1,1.45,1.65.64-.41,1.03-.9,1.03-1.65s-.35-1.23-1.28-1.23Z"/>
        <path class="cls-1" d="M143.34,49.17h-1.05v-.58c.23-.12,1.12-.46,1.77-.46.44,0,.47.22.47.83v7.63h-1.19v-7.42Z"/>
        <path class="cls-1" d="M151.43,56.77c-1.72,0-2.63-1.07-2.63-4.39s1.03-4.27,2.63-4.27c1.5,0,2.63.79,2.63,4.27,0,2.97-.94,4.39-2.63,4.39ZM151.43,48.92c-1.14,0-1.44.9-1.44,3.46,0,2.33.3,3.59,1.44,3.59s1.44-1.25,1.44-3.59c0-2.56-.35-3.46-1.44-3.46Z"/>
        <path class="cls-1" d="M161.06,53.8h.85l-.1.94h-.74v1.85h-1.19v-1.85s.09,0-3.36,0v-.88l3.62-5.7h.94v5.63ZM159.86,53.8v-3.85l-2.4,3.85h2.4Z"/>
      </g>
      <g>
        <path class="cls-1" d="M8.34,75.8h1.11l-.36,1.6c1.56.06,3.01.44,3.01,1.33,0,.06,0,.11-.02.19-.1.48-.3,1.06-.79,1.9h-1.74l.36-1.67c-.26-.11-.71-.21-1.15-.25l-.87,3.92c1.4.82,2.81,1.75,2.81,3.44,0,2.93-2.25,4.22-4.55,4.43l-.3,1.39h-1.11l.3-1.35c-2.1-.08-3.05-.63-3.05-1.86,0-.51.14-1.05.55-1.62h1.4c-.04.17-.04.34-.04.49,0,.99.34,1.45,1.46,1.48l1.01-4.62c-1.74-1.01-2.73-1.73-2.73-3.5,0-1.94,1.62-3.46,4.33-3.69l.36-1.62ZM6.92,82.23l.73-3.31c-1.23.15-1.74.74-1.74,1.81,0,.65.24.97,1.01,1.5ZM7.35,85.25l-.85,3.86c1.15-.29,1.72-1.18,1.72-2.21,0-.74-.16-1.12-.87-1.65Z"/>
        <path class="cls-1" d="M19.83,87.99c1.54,0,2.19.02,2.79.08l-.81,2.38h-8.05l.4-1.77c1.13-.99,2.95-2.58,4.21-3.8,1.33-1.27,2.63-2.76,2.63-4.51,0-.88-.57-1.22-1.36-1.22-.59,0-1.58.19-2.61,1.14l-.32-1.69c.59-.42,1.98-1.22,3.86-1.22,2.39,0,3.22,1.16,3.22,2.59,0,3.9-4.63,6.22-7.44,8.14,1.17-.08,3.12-.11,3.48-.11Z"/>
        <path class="cls-1" d="M34.25,87.59c-1.13,2.07-2.69,3.04-4.47,3.04-2.53,0-3.14-2.03-3.14-3.59,0-1.77.65-4.85,1.6-6.62,1.13-2.07,2.69-3.04,4.47-3.04s3.14.76,3.14,3.59c0,1.77-.65,4.85-1.6,6.62ZM32.37,78.86c-.93,0-1.56.74-2.16,2.7-.53,1.77-1.13,4.98-1.13,6.08s.49,1.5,1.01,1.5c1.11,0,1.58-.74,2.17-2.7.53-1.77,1.13-4.98,1.13-6.08s-.38-1.5-1.03-1.5Z"/>
        <path class="cls-1" d="M46.37,87.59c-1.13,2.07-2.69,3.04-4.47,3.04-2.53,0-3.14-2.03-3.14-3.59,0-1.77.65-4.85,1.6-6.62,1.13-2.07,2.69-3.04,4.47-3.04s3.14.76,3.14,3.59c0,1.77-.65,4.85-1.6,6.62ZM44.49,78.86c-.93,0-1.56.74-2.16,2.7-.53,1.77-1.13,4.98-1.13,6.08s.49,1.5,1.01,1.5c1.11,0,1.58-.74,2.17-2.7.53-1.77,1.13-4.98,1.13-6.08s-.38-1.5-1.03-1.5Z"/>
        <path class="cls-1" d="M61.25,94.61h-2.39l2.53-11.48h-.95l.24-1.14c.71-.32,1.42-.51,1.98-.51.87,0,1.03.51,1.07,1.08.55-.7,1.44-1.24,2.61-1.24,1.72,0,2.59.93,2.59,3.06,0,2.61-1.66,6.18-5.06,6.18-1.03,0-1.66-.25-1.66-.25l-.95,4.3ZM65.08,82.97c-.87,0-1.36.44-1.54,1.24l-1.03,4.68c.12.08.4.19,1.15.19,2.17,0,2.73-2.91,2.73-4.41,0-.93-.28-1.69-1.3-1.69Z"/>
        <path class="cls-1" d="M79.4,88.39l.24,1.27c-.99.67-2.04.97-3.3.97-2.37,0-3.66-1.16-3.66-3.19,0-3.73,2.25-6.12,5.38-6.12,1.25,0,2.77.21,2.77,2.17,0,2.07-2.19,2.87-3.82,2.87-.75,0-1.36-.09-1.72-.13-.08.32-.08.53-.08,1.05,0,1.03.57,1.67,1.64,1.67.91,0,1.74-.17,2.55-.55ZM77.48,82.72c-.63,0-1.5.46-1.88,2.21.24.02.77.08,1.52.08,1.03,0,1.46-.51,1.46-1.48,0-.44-.26-.8-1.11-.8Z"/>
        <path class="cls-1" d="M87.81,82.99c.83-1.24,1.88-1.52,2.71-1.52.4,0,.93.06,1.4.34l-.73,2.17c-.79-.48-1.23-.57-1.9-.57-.93,0-1.54.67-1.68,1.33l-1.27,5.7h-2.43l1.66-7.34h-.93l.26-1.14c.47-.27,1.23-.49,1.8-.49.85,0,1.11.59,1.11,1.52Z"/>
        <path class="cls-1" d="M105.65,87.11c0,1.35.75,1.83,1.42,1.83.61,0,1.33-.04,2.25-.55l.24,1.27c-.99.67-1.58.97-3.3.97-1.6,0-3.07-.91-3.07-3.1,0-3.04,1.76-6.22,5.4-6.22,1.25,0,1.62.17,2.17.44l-.67,1.77c-.55-.44-.93-.57-1.76-.57-1.86,0-2.69,2.07-2.69,4.16Z"/>
        <path class="cls-1" d="M117.31,90.63c-2.71,0-3.46-1.54-3.46-3.25,0-3.42,1.74-6.07,5.16-6.07,2.29,0,3.52,1.05,3.52,3.02,0,3.21-1.8,6.29-5.22,6.29ZM118.76,82.72c-2.06,0-2.43,3.21-2.43,4.58,0,1.25.43,1.92,1.36,1.92,2.06,0,2.37-3.86,2.37-4.73,0-.97-.18-1.77-1.31-1.77Z"/>
        <path class="cls-1" d="M128.23,90.59c-.95,0-1.96-.17-1.96-1.62,0-.29.04-.63.12-1.01l1.07-4.87h-.93l.26-1.14c.47-.27,1.25-.49,1.96-.49.83,0,1.25.23,1.25.86,0,.13-.02.3-.06.49l-1.01,4.56c-.06.25-.08.46-.08.65,0,.57.28.82,1.03.82,1.03,0,1.72-.89,1.96-1.96l1.19-5.34h2.41l-1.62,7.32h.93l-.26,1.14c-.47.27-1.36.49-2,.49-.77,0-1.01-.4-1.01-.93,0-.19.04-.4.08-.61-.51.93-1.86,1.64-3.32,1.64Z"/>
        <path class="cls-1" d="M140.57,94.61h-2.39l2.53-11.48h-.95l.24-1.14c.71-.32,1.42-.51,1.98-.51.87,0,1.03.51,1.07,1.08.55-.7,1.44-1.24,2.61-1.24,1.72,0,2.59.93,2.59,3.06,0,2.61-1.66,6.18-5.06,6.18-1.03,0-1.66-.25-1.66-.25l-.95,4.3ZM144.41,82.97c-.87,0-1.36.44-1.54,1.24l-1.03,4.68c.12.08.4.19,1.15.19,2.18,0,2.73-2.91,2.73-4.41,0-.93-.28-1.69-1.31-1.69Z"/>
        <path class="cls-1" d="M154.52,79.09h-.93l.26-1.14c.47-.27,1.27-.49,2.04-.49.89,0,1.19.29,1.19.84,0,.15-.02.32-.06.51l-2.25,10.06h.93l-.24,1.14c-.47.27-1.38.49-2.02.49-.93,0-1.21-.34-1.21-.86,0-.17.04-.36.08-.55l2.21-10Z"/>
        <path class="cls-1" d="M166.54,88.39l.24,1.27c-.99.67-2.04.97-3.3.97-2.37,0-3.66-1.16-3.66-3.19,0-3.73,2.25-6.12,5.38-6.12,1.25,0,2.77.21,2.77,2.17,0,2.07-2.2,2.87-3.82,2.87-.75,0-1.37-.09-1.72-.13-.08.32-.08.53-.08,1.05,0,1.03.57,1.67,1.64,1.67.91,0,1.74-.17,2.55-.55ZM164.62,82.72c-.63,0-1.5.46-1.88,2.21.24.02.77.08,1.52.08,1.03,0,1.46-.51,1.46-1.48,0-.44-.26-.8-1.11-.8Z"/>
      </g>
    </g>
  </g>
</svg>